<?xml version="1.0" encoding="UTF-8"?> <!-- Generator: Adobe Illustrator 25.0.1, SVG Export Plug-In . SVG Version: 6.00 Build 0) --> <svg xmlns="http://www.w3.org/2000/svg" xmlns:xlink="http://www.w3.org/1999/xlink" version="1.1" id="Layer_1" x="0px" y="0px" viewBox="0 0 326.5 259.2" style="enable-background:new 0 0 326.5 259.2;" xml:space="preserve"> <style type="text/css"> .st0{fill:#585858;} .st1{fill:#1A1C21;} .st2{fill:#D52028;} </style> <path class="st0" d="M96.3,0c8.4,9.4,16.7,18.9,25.2,28.1c4.9,5.3,6.5,11.3,4.7,18c-2.2,8.4-0.6,15,6.6,20.2c5.4,3.9,8.1,9.1,8.7,16 c1.3,14,3.4,28,5.1,41.6c-11,5.3-11.5,6.4-9.6,22.6c-9.6-3.2-19.5-27.9-17.4-45.6l-8,7.4L84.4,75.7v-2.4c2.5-5.5,4.8-11.1,7.6-16.5 c3.8-7.5,3.9-14.8,2.8-23.2c-1.5-11,0-22.4,0.2-33.7L96.3,0z"></path> <path class="st0" d="M207.7,0c-8.4,9.4-16.6,18.9-25.2,28.1c-4.9,5.3-6.5,11.3-4.7,18c2.2,8.4,0.6,15-6.6,20.2 c-5.4,3.9-8.1,9.1-8.7,16c-1.3,14-3.4,28-5.1,41.6c11,5.3,11.5,6.4,9.6,22.6c9.6-3.2,19.5-27.9,17.4-45.6l8,7.4l27.3-32.4v-2.4 c-2.5-5.5-4.8-11.1-7.6-16.5c-3.8-7.5-3.9-14.8-2.8-23.2c1.5-11,0-22.4-0.2-33.7L207.7,0z"></path> <path class="st1" d="M320.9,169.1c-3.1,0-5.6-2.5-5.6-5.6s2.5-5.6,5.6-5.6c3.1,0,5.6,2.5,5.6,5.6C326.5,166.6,324,169.1,320.9,169.1 z M320.9,158.7c-2.6,0-4.8,2.1-4.8,4.8c0,2.6,2.1,4.8,4.8,4.8c2.6,0,4.8-2.1,4.8-4.8S323.5,158.7,320.9,158.7L320.9,158.7z"></path> <path class="st1" d="M318.7,160.8h2.5c0.3,0,0.7,0.1,1,0.2c0.5,0.2,0.8,0.8,0.8,1.3c0,0.3-0.1,0.6-0.2,0.8c-0.1,0.2-0.3,0.4-0.6,0.5 c0.2,0.1,0.4,0.2,0.5,0.4c0.1,0.2,0.2,0.5,0.2,0.7v0.8c0,0.2,0,0.3,0.1,0.5c0,0.1,0.1,0.3,0.2,0.4v0.1h-0.9c0-0.1-0.1-0.1-0.1-0.2 c0-0.1,0-0.3,0-0.4l0-0.9c0-0.3-0.1-0.6-0.4-0.7c-0.2-0.1-0.4-0.1-0.7-0.1h-1.7v2.4h-0.8L318.7,160.8z M321.2,163.3 c0.3,0,0.6-0.1,0.8-0.2c0.2-0.2,0.3-0.5,0.3-0.8c0-0.3-0.1-0.7-0.4-0.8c-0.2-0.1-0.4-0.1-0.6-0.1h-1.8v1.9H321.2z"></path> <path class="st1" d="M275.9,222.2c-15.1,0-27.4-11.8-27.4-26.4s12.3-26.4,27.4-26.4c7.5,0.1,14.8,3,20.3,8.1l7.8-8.9 c-7.8-6.9-17.8-10.8-28.1-10.9c-21.7,0-39.4,17-39.4,38s17.7,38,39.4,38c10.4,0.1,20.5-3.7,28.1-10.9l-8.5-8.2 C290.1,219.7,283.1,222.4,275.9,222.2"></path> <path class="st1" d="M157.6,195.8c-0.1,20.9,16.8,37.9,37.6,38c3.9,0,7.8-0.6,11.6-1.8v-12.5c-3.6,1.8-7.6,2.7-11.6,2.7 c-14.6,0-26.4-11.8-26.4-26.4c0-14.6,11.8-26.4,26.4-26.4h18.4v64.4h11.5v-76h-29.9C174.4,158,157.6,175,157.6,195.8"></path> <path class="st2" d="M37.6,157.9c-6.7,0-13.3,1.8-19,5.2c-18.1,10.8-24,34.2-13.3,52.3c3.2,5.5,7.8,10,13.3,13.3l0,0l0.4,0.2 c0.5,0.3,0.9,0.5,1.4,0.8l0.6,0.3c0.6,0.3,1.2,0.6,1.8,0.9l0.2,0.1c0.7,0.3,1.3,0.6,2,0.8l0.7,0.2c0.5,0.2,1,0.3,1.5,0.5l0.7,0.2 c0.7,0.2,1.4,0.4,2,0.5h0.2c0.7,0.1,1.4,0.3,2.2,0.4l0.7,0.1c0.5,0.1,1.1,0.1,1.6,0.2l0.7,0.1c0.7,0,1.5,0.1,2.2,0.1H56 c0,7.6-6.1,13.7-13.7,13.8H27.9v11.7h14.5c14-0.1,25.2-11.4,25.2-25.4v-76L37.6,157.9z M56,222.2H37.4c-0.5,0-0.9,0-1.4,0h-0.6 l-1.1-0.2l-0.5-0.1c-0.5-0.1-1-0.2-1.5-0.3l-0.5-0.1l-1.1-0.3l-0.6-0.2c-0.4-0.1-0.8-0.3-1.2-0.4l-0.4-0.1c-0.4-0.2-0.8-0.3-1.2-0.5 l-0.5-0.2c-0.3-0.1-0.7-0.3-1-0.5l-0.4-0.2c-0.4-0.2-0.9-0.5-1.3-0.8c-12.4-7.7-16.2-24-8.5-36.4c2.1-3.4,5-6.3,8.4-8.5 c4.1-2.6,8.9-4,13.7-3.9H56V222.2L56,222.2z"></path> <path class="st1" d="M108.7,157.9H78.8v101.3h11.5v-25.4h18.5c0.7,0,1.4,0,2.2-0.1l0.7-0.1c0.5-0.1,1.1-0.1,1.6-0.2l0.7-0.1 c0.7-0.1,1.4-0.2,2.1-0.4l0.2-0.1c0.7-0.1,1.3-0.3,2-0.5l0.7-0.2c0.5-0.1,1-0.3,1.5-0.5l0.7-0.2c0.7-0.2,1.3-0.5,2-0.8l0.3-0.1 c0.6-0.3,1.2-0.5,1.8-0.8l0.7-0.3l1.3-0.7l0.4-0.2c18.1-10.7,24.1-33.9,13.5-52C134.5,165.1,122.1,158,108.7,157.9 M122.4,218.3 c-0.4,0.3-0.9,0.5-1.3,0.8l-0.4,0.2c-0.3,0.2-0.7,0.4-1,0.5l-0.5,0.2c-0.5,0.2-0.9,0.4-1.4,0.6l-0.2,0.1c-0.4,0.2-0.9,0.3-1.4,0.4 l-0.5,0.1l-1.2,0.3l-0.4,0.1c-0.5,0.1-1,0.2-1.6,0.3l-0.4,0.1c-0.4,0.1-0.8,0.1-1.2,0.1h-0.5c-0.5,0-1,0-1.5,0.1H90.3v-52.7h18.4 c14.6,0.2,26.3,12.1,26.1,26.7C134.8,205.2,130.1,213.6,122.4,218.3"></path> </svg> 