<svg xmlns="http://www.w3.org/2000/svg" xmlns:xlink="http://www.w3.org/1999/xlink" id="Capa_1" x="0px" y="0px" viewBox="0 0 200 170.9" style="enable-background:new 0 0 200 170.9;" xml:space="preserve"> <style type="text/css"> .st0{fill:#FFFFFF;} .st1{fill:#9B9EA7;} .st2{fill:#D52028;} </style> <g id="Group_781" transform="translate(-12.619 -9.486)"> <g id="Group_801" transform="translate(203.891 114.221)"> <path id="Path_347" class="st0" d="M4.4,8.7C2,8.7,0,6.8,0,4.4S2,0,4.4,0c2.4,0,4.4,2,4.4,4.4C8.7,6.8,6.8,8.7,4.4,8.7z M4.4,0.7 c-2,0-3.7,1.7-3.7,3.7c0,2,1.7,3.7,3.7,3.7c2,0,3.7-1.7,3.7-3.7v0C8.1,2.3,6.4,0.7,4.4,0.7L4.4,0.7z"></path> <g id="Group_800" transform="translate(2.661 2.255)"> <path id="Path_348" class="st0" d="M0,0h2c0.3,0,0.5,0,0.8,0.1c0.4,0.2,0.6,0.6,0.6,1c0,0.2,0,0.4-0.2,0.6C3.1,2,2.9,2.1,2.8,2.2 C2.9,2.3,3,2.4,3.1,2.5C3.2,2.6,3.3,2.8,3.3,3l0,0.6c0,0.1,0,0.2,0,0.4c0,0.1,0.1,0.2,0.2,0.3v0.1H2.8c0,0,0-0.1,0-0.1 c0-0.1,0-0.2,0-0.3l0-0.7c0-0.2-0.1-0.5-0.3-0.6C2.2,2.5,2.1,2.5,1.9,2.5H0.6v1.9H0L0,0z M1.9,2c0.2,0,0.4,0,0.6-0.2 c0.2-0.1,0.3-0.4,0.2-0.6c0-0.3-0.1-0.5-0.3-0.6C2.3,0.5,2.1,0.5,2,0.5H0.6V2L1.9,2z"></path> </g> </g> <g id="Group_802" transform="translate(66.008 9.486)"> <path id="Path_349" class="st1" d="M7.5,0c5.3,6,10.6,12,16,17.8c3,3,4.2,7.3,3,11.4c-1.4,5.3-0.4,9.5,4.2,12.8 c3.3,2.3,5.3,6.1,5.5,10.1c0.8,8.9,2.2,17.8,3.3,26.4c-7,3.3-7.3,4.1-6.1,14.3c-6.1-2-12.4-17.7-11.1-28.9l-5.1,4.7L0,48v-1.5 c1.6-3.5,3.1-7,4.8-10.5c2.4-4.7,2.5-9.4,1.8-14.7c-0.9-7,0-14.2,0.2-21.4L7.5,0z"></path> <path id="Path_350" class="st1" d="M77.2,0c-5.3,6-10.6,12-16,17.8c-3,3-4.2,7.3-3,11.4c1.4,5.3,0.4,9.5-4.2,12.8 c-3.3,2.3-5.3,6.1-5.5,10.1c-0.8,8.9-2.2,17.8-3.3,26.4c7,3.3,7.3,4.1,6.1,14.3c6.1-2,12.4-17.7,11.1-28.9l5.1,4.7L84.7,48v-1.5 c-1.6-3.5-3.1-7-4.8-10.5c-2.4-4.7-2.5-9.4-1.8-14.7c0.9-7,0-14.2-0.2-21.4L77.2,0z"></path> </g> <path id="Path_351" class="st0" d="M186.6,156.3c-9.5,0-17.2-7.7-17.2-17.2c0-9.5,7.7-17.2,17.2-17.2c4.5,0,8.9,1.8,12.1,5l4.9-5.8 c-9.9-9.4-25.6-9-34.9,0.9c-9.4,9.9-9,25.6,0.9,34.9c9.7,9.2,25,9,34.5-0.5l-5.4-5.3C195.5,154.5,191.2,156.3,186.6,156.3"></path> <path id="Path_352" class="st0" d="M112.7,139.1c0,13.7,11.1,24.7,24.7,24.7c2.6,0,5.1-0.4,7.6-1.2v-8.1c-8.5,4.2-18.8,0.7-23-7.8 s-0.7-18.8,7.8-23c2.4-1.2,5-1.8,7.6-1.8h12.1v40.7h7.6v-48.2h-19.6C123.8,114.4,112.7,125.5,112.7,139.1"></path> <path id="Path_353" class="st2" d="M37.3,114.4c-13.6,0-24.7,11.1-24.7,24.7c0,8.8,4.7,16.9,12.2,21.3v0c0.1,0,0.2,0.1,0.3,0.1 c0.3,0.2,0.6,0.3,0.9,0.5c0.1,0.1,0.3,0.1,0.4,0.2c0.4,0.2,0.8,0.4,1.2,0.6c0,0,0.1,0,0.1,0.1c0.4,0.2,0.9,0.4,1.3,0.5 c0.1,0.1,0.3,0.1,0.4,0.1c0.3,0.1,0.7,0.2,1,0.3c0.1,0,0.3,0.1,0.4,0.1c0.4,0.1,0.9,0.2,1.3,0.3l0.1,0c0.5,0.1,0.9,0.2,1.4,0.2 c0.2,0,0.3,0,0.5,0.1c0.4,0,0.7,0.1,1.1,0.1c0.2,0,0.3,0,0.5,0c0.5,0,1,0,1.5,0.1h12.1c0,4.9-4,9-9,9h-9.5v7.6h9.5 c9.1,0,16.5-7.4,16.5-16.5v-49.4H37.3z M49.4,156.3H37.3c-0.1,0-0.1,0-0.2,0c-0.3,0-0.6,0-0.9,0c-0.1,0-0.3,0-0.4,0 c-0.2,0-0.5,0-0.7-0.1c-0.1,0-0.2,0-0.3,0c-0.3-0.1-0.7-0.1-1-0.2c-0.1,0-0.2-0.1-0.3-0.1c-0.2-0.1-0.5-0.1-0.7-0.2 c-0.1,0-0.2-0.1-0.4-0.1c-0.3-0.1-0.5-0.2-0.8-0.3c-0.1,0-0.2-0.1-0.3-0.1c-0.3-0.1-0.6-0.2-0.8-0.3c-0.1,0-0.2-0.1-0.3-0.2 c-0.2-0.1-0.4-0.2-0.6-0.3c-0.1-0.1-0.2-0.1-0.3-0.1c-0.3-0.2-0.6-0.3-0.8-0.5c-8.1-4.9-10.6-15.5-5.7-23.6 c3.1-5.1,8.7-8.2,14.6-8.2h12.1V156.3z"></path> <path id="Path_354" class="st0" d="M82.3,114.4H62.6v66h7.6v-16.5h12.1h0.1c0.5,0,1,0,1.4,0c0.2,0,0.3,0,0.5,0 c0.4,0,0.7-0.1,1.1-0.1c0.2,0,0.3,0,0.5-0.1c0.5-0.1,0.9-0.1,1.4-0.2l0.2,0c0.4-0.1,0.9-0.2,1.3-0.3c0.2,0,0.3-0.1,0.5-0.1 c0.3-0.1,0.7-0.2,1-0.3c0.2-0.1,0.3-0.1,0.5-0.2c0.4-0.2,0.9-0.3,1.3-0.5c0.1,0,0.1-0.1,0.2-0.1c0.4-0.2,0.8-0.4,1.2-0.5 c0.1-0.1,0.3-0.1,0.4-0.2c0.3-0.2,0.6-0.3,0.9-0.5c0.1-0.1,0.2-0.1,0.3-0.2c11.8-6.9,15.7-22,8.9-33.8 C99.2,119.1,91,114.4,82.3,114.4 M91.2,153.8c-0.3,0.2-0.6,0.3-0.9,0.5c-0.1,0-0.2,0.1-0.3,0.1c-0.2,0.1-0.5,0.2-0.7,0.3 c-0.1,0-0.2,0.1-0.3,0.1c-0.3,0.1-0.6,0.3-0.9,0.4l-0.1,0c-0.3,0.1-0.6,0.2-0.9,0.3c-0.1,0-0.2,0.1-0.3,0.1 c-0.3,0.1-0.5,0.1-0.8,0.2c-0.1,0-0.2,0-0.3,0.1c-0.3,0.1-0.7,0.1-1,0.2c-0.1,0-0.2,0-0.3,0c-0.3,0-0.5,0.1-0.8,0.1 c-0.1,0-0.2,0-0.3,0c-0.3,0-0.7,0-1,0h-0.1H70.2V122h12.1c9.5,0,17.2,7.7,17.2,17.1C99.4,145.1,96.3,150.6,91.2,153.8"></path> </g> </svg>