<?xml version="1.0" encoding="UTF-8"?> <!-- Generator: Adobe Illustrator 25.0.0, SVG Export Plug-In . SVG Version: 6.00 Build 0) --> <svg xmlns="http://www.w3.org/2000/svg" xmlns:xlink="http://www.w3.org/1999/xlink" version="1.1" id="Layer_1" x="0px" y="0px" viewBox="0 0 24 24" style="enable-background:new 0 0 24 24;" xml:space="preserve"> <g> <path d="M2.2,18.8c-0.4,0-0.8-0.3-0.8-0.8s0.3-0.8,0.8-0.8h19.5c0.4,0,0.8,0.3,0.8,0.8s-0.3,0.8-0.8,0.8H2.2z"></path> <path d="M2.2,12.8c-0.4,0-0.8-0.3-0.8-0.8s0.3-0.8,0.8-0.8h19.5c0.4,0,0.8,0.3,0.8,0.8s-0.3,0.8-0.8,0.8H2.2z"></path> <path d="M2.2,6.8C1.8,6.8,1.5,6.4,1.5,6s0.3-0.8,0.8-0.8h19.5c0.4,0,0.8,0.3,0.8,0.8s-0.3,0.8-0.8,0.8H2.2z"></path> </g> </svg> 